<?xml version="1.0" encoding="UTF-8" standalone="no"?><!DOCTYPE svg PUBLIC "-//W3C//DTD SVG 1.1//EN" "http://www.w3.org/Graphics/SVG/1.1/DTD/svg11.dtd"><svg width="100%" height="100%" viewBox="0 0 842 596" version="1.1" xmlns="http://www.w3.org/2000/svg" xmlns:xlink="http://www.w3.org/1999/xlink" xml:space="preserve" xmlns:serif="http://www.serif.com/" style="fill-rule:evenodd;clip-rule:evenodd;stroke-linejoin:round;stroke-miterlimit:1.41421;"><path d="M224.856,161.46c75.158,0 154.053,61.019 154.053,136.178c0,75.158 -78.895,136.178 -154.053,136.178c-75.159,0 -136.178,-61.02 -136.178,-136.178c0,-75.159 61.019,-136.178 136.178,-136.178Zm0,68.089c37.579,0 68.089,30.509 68.089,68.089c0,37.579 -30.51,68.089 -68.089,68.089c-37.58,0 -68.089,-30.51 -68.089,-68.089c0,-37.58 30.509,-68.089 68.089,-68.089Z" style="fill:#808080;"/><path d="M458.661,161.46c75.159,0 136.178,61.019 136.178,136.178c0,75.158 -61.019,136.178 -136.178,136.178c-75.158,0 -165.683,-61.02 -165.683,-136.178c0,-75.159 90.525,-136.178 165.683,-136.178Zm0,68.089c37.58,0 68.089,30.509 68.089,68.089c0,37.579 -30.509,68.089 -68.089,68.089c-37.579,0 -68.089,-30.51 -68.089,-68.089c0,-37.58 30.51,-68.089 68.089,-68.089Z" style="fill:#808080;"/><path d="M222.76,181.431c64.137,0 156.149,52.071 156.149,116.207c0,64.136 -92.012,116.207 -156.149,116.207c-64.136,0 -116.206,-52.071 -116.206,-116.207c0,-64.136 52.07,-116.207 116.206,-116.207Zm0,34.862c44.896,0 81.345,36.449 81.345,81.345c0,44.895 -36.449,81.345 -81.345,81.345c-44.895,0 -81.344,-36.45 -81.344,-81.345c0,-44.896 36.449,-81.345 81.344,-81.345Z"/><path d="M460.362,181.431c-64.136,0 -156.149,52.071 -156.149,116.207c0,64.136 92.013,116.207 156.149,116.207c64.136,0 116.207,-52.071 116.207,-116.207c0,-64.136 -52.071,-116.207 -116.207,-116.207Zm0,34.862c-44.896,0 -81.345,36.449 -81.345,81.345c0,44.895 36.449,81.345 81.345,81.345c44.895,0 81.345,-36.45 81.345,-81.345c0,-44.896 -36.45,-81.345 -81.345,-81.345Z"/><rect x="88.678" y="25.282" width="17.876" height="272.356" style="fill:#808080;"/><path d="M662.437,421.429l4.538,25.538c-8.843,1.713 -16.755,2.57 -23.736,2.57c-11.403,0 -20.246,-1.66 -26.529,-4.979c-6.283,-3.32 -10.704,-7.683 -13.264,-13.09c-2.56,-5.408 -3.84,-16.785 -3.84,-34.132l0,-98.137l-23.037,0l-18.561,-22.486l41.598,0l0,-42.243l31.241,-17.347l0,59.59l31.59,0l0,22.486l-31.59,0l0,99.744c0,8.245 0.553,13.545 1.658,15.901c1.105,2.355 2.909,4.229 5.41,5.621c2.502,1.392 6.08,2.088 10.734,2.088c3.491,0 8.087,-0.374 13.788,-1.124Z" style="fill-rule:nonzero;"/></svg>